<svg width="278" height="54" viewBox="0 0 278 54" fill="none" xmlns="http://www.w3.org/2000/svg">
<rect x="6" y="7" width="40" height="40" rx="20" fill="white"/>
<path d="M26 18C26 18 33 24 33 30C33 32 32 36 26 36M26 18C26 18 19 24 19 30C19 32 20 36 26 36" fill="black"/>
<path d="M65.7 14.728C68.364 14.728 70.692 15.256 72.684 16.312C74.676 17.368 76.212 18.856 77.292 20.776C78.396 22.672 78.948 24.868 78.948 27.364C78.948 29.836 78.396 32.032 77.292 33.952C76.212 35.872 74.664 37.36 72.648 38.416C70.656 39.472 68.34 40 65.7 40H56.232V14.728H65.7ZM65.304 34.672C67.632 34.672 69.444 34.036 70.74 32.764C72.036 31.492 72.684 29.692 72.684 27.364C72.684 25.036 72.036 23.224 70.74 21.928C69.444 20.632 67.632 19.984 65.304 19.984H62.388V34.672H65.304ZM99.1643 29.632C99.1643 30.208 99.1283 30.808 99.0563 31.432H85.1243C85.2203 32.68 85.6163 33.64 86.3123 34.312C87.0323 34.96 87.9083 35.284 88.9403 35.284C90.4763 35.284 91.5443 34.636 92.1443 33.34H98.6963C98.3603 34.66 97.7483 35.848 96.8603 36.904C95.9963 37.96 94.9043 38.788 93.5843 39.388C92.2643 39.988 90.7883 40.288 89.1563 40.288C87.1883 40.288 85.4363 39.868 83.9003 39.028C82.3643 38.188 81.1643 36.988 80.3003 35.428C79.4363 33.868 79.0043 32.044 79.0043 29.956C79.0043 27.868 79.4243 26.044 80.2643 24.484C81.1283 22.924 82.3283 21.724 83.8643 20.884C85.4003 20.044 87.1643 19.624 89.1563 19.624C91.1003 19.624 92.8283 20.032 94.3403 20.848C95.8523 21.664 97.0283 22.828 97.8683 24.34C98.7323 25.852 99.1643 27.616 99.1643 29.632ZM92.8643 28.012C92.8643 26.956 92.5043 26.116 91.7843 25.492C91.0643 24.868 90.1643 24.556 89.0843 24.556C88.0523 24.556 87.1763 24.856 86.4563 25.456C85.7603 26.056 85.3283 26.908 85.1603 28.012H92.8643ZM99.0278 29.92C99.0278 27.856 99.4118 26.044 100.18 24.484C100.972 22.924 102.04 21.724 103.384 20.884C104.728 20.044 106.228 19.624 107.884 19.624C109.3 19.624 110.536 19.912 111.592 20.488C112.672 21.064 113.5 21.82 114.076 22.756V19.912H120.232V40H114.076V37.156C113.476 38.092 112.636 38.848 111.556 39.424C110.5 40 109.264 40.288 107.848 40.288C106.216 40.288 104.728 39.868 103.384 39.028C102.04 38.164 100.972 36.952 100.18 35.392C99.4118 33.808 99.0278 31.984 99.0278 29.92ZM114.076 29.956C114.076 28.42 113.644 27.208 112.78 26.32C111.94 25.432 110.908 24.988 109.684 24.988C108.46 24.988 107.416 25.432 106.552 26.32C105.712 27.184 105.292 28.384 105.292 29.92C105.292 31.456 105.712 32.68 106.552 33.592C107.416 34.48 108.46 34.924 109.684 34.924C110.908 34.924 111.94 34.48 112.78 33.592C113.644 32.704 114.076 31.492 114.076 29.956ZM121.301 29.92C121.301 27.856 121.685 26.044 122.453 24.484C123.245 22.924 124.313 21.724 125.657 20.884C127.001 20.044 128.501 19.624 130.157 19.624C131.477 19.624 132.677 19.9 133.757 20.452C134.861 21.004 135.725 21.748 136.349 22.684V13.36H142.505V40H136.349V37.12C135.773 38.08 134.945 38.848 133.865 39.424C132.809 40 131.573 40.288 130.157 40.288C128.501 40.288 127.001 39.868 125.657 39.028C124.313 38.164 123.245 36.952 122.453 35.392C121.685 33.808 121.301 31.984 121.301 29.92ZM136.349 29.956C136.349 28.42 135.917 27.208 135.053 26.32C134.213 25.432 133.181 24.988 131.957 24.988C130.733 24.988 129.689 25.432 128.825 26.32C127.985 27.184 127.565 28.384 127.565 29.92C127.565 31.456 127.985 32.68 128.825 33.592C129.689 34.48 130.733 34.924 131.957 34.924C133.181 34.924 134.213 34.48 135.053 33.592C135.917 32.704 136.349 31.492 136.349 29.956ZM154.267 14.728C156.931 14.728 159.259 15.256 161.251 16.312C163.243 17.368 164.779 18.856 165.859 20.776C166.963 22.672 167.515 24.868 167.515 27.364C167.515 29.836 166.963 32.032 165.859 33.952C164.779 35.872 163.231 37.36 161.215 38.416C159.223 39.472 156.907 40 154.267 40H144.799V14.728H154.267ZM153.871 34.672C156.199 34.672 158.011 34.036 159.307 32.764C160.603 31.492 161.251 29.692 161.251 27.364C161.251 25.036 160.603 23.224 159.307 21.928C158.011 20.632 156.199 19.984 153.871 19.984H150.955V34.672H153.871ZM174.951 23.26C175.671 22.156 176.571 21.292 177.651 20.668C178.731 20.02 179.931 19.696 181.251 19.696V26.212H179.559C178.023 26.212 176.871 26.548 176.103 27.22C175.335 27.868 174.951 29.02 174.951 30.676V40H168.795V19.912H174.951V23.26ZM191.178 40.288C189.21 40.288 187.434 39.868 185.85 39.028C184.29 38.188 183.054 36.988 182.142 35.428C181.254 33.868 180.81 32.044 180.81 29.956C180.81 27.892 181.266 26.08 182.178 24.52C183.09 22.936 184.338 21.724 185.922 20.884C187.506 20.044 189.282 19.624 191.25 19.624C193.218 19.624 194.994 20.044 196.578 20.884C198.162 21.724 199.41 22.936 200.322 24.52C201.234 26.08 201.69 27.892 201.69 29.956C201.69 32.02 201.222 33.844 200.286 35.428C199.374 36.988 198.114 38.188 196.506 39.028C194.922 39.868 193.146 40.288 191.178 40.288ZM191.178 34.96C192.354 34.96 193.35 34.528 194.166 33.664C195.006 32.8 195.426 31.564 195.426 29.956C195.426 28.348 195.018 27.112 194.202 26.248C193.41 25.384 192.426 24.952 191.25 24.952C190.05 24.952 189.054 25.384 188.262 26.248C187.47 27.088 187.074 28.324 187.074 29.956C187.074 31.564 187.458 32.8 188.226 33.664C189.018 34.528 190.002 34.96 191.178 34.96ZM208.952 22.756C209.552 21.82 210.38 21.064 211.436 20.488C212.492 19.912 213.728 19.624 215.144 19.624C216.8 19.624 218.3 20.044 219.644 20.884C220.988 21.724 222.044 22.924 222.812 24.484C223.604 26.044 224 27.856 224 29.92C224 31.984 223.604 33.808 222.812 35.392C222.044 36.952 220.988 38.164 219.644 39.028C218.3 39.868 216.8 40.288 215.144 40.288C213.752 40.288 212.516 40 211.436 39.424C210.38 38.848 209.552 38.104 208.952 37.192V49.576H202.796V19.912H208.952V22.756ZM217.736 29.92C217.736 28.384 217.304 27.184 216.44 26.32C215.6 25.432 214.556 24.988 213.308 24.988C212.084 24.988 211.04 25.432 210.176 26.32C209.336 27.208 208.916 28.42 208.916 29.956C208.916 31.492 209.336 32.704 210.176 33.592C211.04 34.48 212.084 34.924 213.308 34.924C214.532 34.924 215.576 34.48 216.44 33.592C217.304 32.68 217.736 31.456 217.736 29.92Z" fill="white"/>
<path d="M224.773 40.112C224.443 40.112 224.165 40 223.941 39.776C223.717 39.552 223.605 39.2747 223.605 38.944C223.605 38.6133 223.717 38.336 223.941 38.112C224.165 37.888 224.443 37.776 224.773 37.776C225.093 37.776 225.365 37.888 225.589 38.112C225.813 38.336 225.925 38.6133 225.925 38.944C225.925 39.2747 225.813 39.552 225.589 39.776C225.365 40 225.093 40.112 224.773 40.112ZM230.137 40.144C229.443 40.144 228.819 40.0213 228.265 39.776C227.721 39.52 227.289 39.1787 226.969 38.752C226.649 38.3147 226.478 37.8293 226.457 37.296H228.345C228.377 37.6693 228.553 37.984 228.873 38.24C229.203 38.4853 229.614 38.608 230.105 38.608C230.617 38.608 231.011 38.512 231.289 38.32C231.577 38.1173 231.721 37.8613 231.721 37.552C231.721 37.2213 231.561 36.976 231.241 36.816C230.931 36.656 230.435 36.48 229.753 36.288C229.091 36.1067 228.553 35.9307 228.137 35.76C227.721 35.5893 227.358 35.328 227.049 34.976C226.75 34.624 226.601 34.16 226.601 33.584C226.601 33.1147 226.739 32.688 227.017 32.304C227.294 31.9093 227.689 31.6 228.201 31.376C228.723 31.152 229.321 31.04 229.993 31.04C230.995 31.04 231.801 31.296 232.409 31.808C233.027 32.3093 233.358 32.9973 233.401 33.872H231.577C231.545 33.4773 231.385 33.1627 231.097 32.928C230.809 32.6933 230.419 32.576 229.929 32.576C229.449 32.576 229.081 32.6667 228.825 32.848C228.569 33.0293 228.441 33.2693 228.441 33.568C228.441 33.8027 228.526 34 228.697 34.16C228.867 34.32 229.075 34.448 229.321 34.544C229.566 34.6293 229.929 34.7413 230.409 34.88C231.049 35.0507 231.571 35.2267 231.977 35.408C232.393 35.5787 232.75 35.8347 233.049 36.176C233.347 36.5173 233.502 36.9707 233.513 37.536C233.513 38.0373 233.374 38.4853 233.097 38.88C232.819 39.2747 232.425 39.584 231.913 39.808C231.411 40.032 230.819 40.144 230.137 40.144ZM236.347 32.48C236.657 32.0747 237.078 31.7333 237.611 31.456C238.145 31.1787 238.747 31.04 239.419 31.04C240.187 31.04 240.886 31.232 241.515 31.616C242.155 31.9893 242.657 32.5173 243.019 33.2C243.382 33.8827 243.563 34.6667 243.563 35.552C243.563 36.4373 243.382 37.232 243.019 37.936C242.657 38.6293 242.155 39.1733 241.515 39.568C240.886 39.952 240.187 40.144 239.419 40.144C238.747 40.144 238.15 40.0107 237.627 39.744C237.105 39.4667 236.678 39.1253 236.347 38.72V44.192H234.523V31.184H236.347V32.48ZM241.707 35.552C241.707 34.944 241.579 34.4213 241.323 33.984C241.078 33.536 240.747 33.2 240.331 32.976C239.926 32.7413 239.489 32.624 239.019 32.624C238.561 32.624 238.123 32.7413 237.707 32.976C237.302 33.2107 236.971 33.552 236.715 34C236.47 34.448 236.347 34.976 236.347 35.584C236.347 36.192 236.47 36.7253 236.715 37.184C236.971 37.632 237.302 37.9733 237.707 38.208C238.123 38.4427 238.561 38.56 239.019 38.56C239.489 38.56 239.926 38.4427 240.331 38.208C240.747 37.9627 241.078 37.6107 241.323 37.152C241.579 36.6933 241.707 36.16 241.707 35.552ZM243.799 35.552C243.799 34.6667 243.981 33.8827 244.343 33.2C244.717 32.5173 245.218 31.9893 245.847 31.616C246.487 31.232 247.191 31.04 247.959 31.04C248.653 31.04 249.255 31.1787 249.767 31.456C250.29 31.7227 250.706 32.0587 251.015 32.464V31.184H252.855V40H251.015V38.688C250.706 39.104 250.285 39.4507 249.751 39.728C249.218 40.0053 248.61 40.144 247.927 40.144C247.17 40.144 246.477 39.952 245.847 39.568C245.218 39.1733 244.717 38.6293 244.343 37.936C243.981 37.232 243.799 36.4373 243.799 35.552ZM251.015 35.584C251.015 34.976 250.887 34.448 250.631 34C250.386 33.552 250.061 33.2107 249.655 32.976C249.25 32.7413 248.813 32.624 248.343 32.624C247.874 32.624 247.437 32.7413 247.031 32.976C246.626 33.2 246.295 33.536 246.039 33.984C245.794 34.4213 245.671 34.944 245.671 35.552C245.671 36.16 245.794 36.6933 246.039 37.152C246.295 37.6107 246.626 37.9627 247.031 38.208C247.447 38.4427 247.885 38.56 248.343 38.56C248.813 38.56 249.25 38.4427 249.655 38.208C250.061 37.9733 250.386 37.632 250.631 37.184C250.887 36.7253 251.015 36.192 251.015 35.584ZM253.683 35.584C253.683 34.6773 253.864 33.8827 254.227 33.2C254.6 32.5067 255.112 31.9733 255.763 31.6C256.414 31.2267 257.16 31.04 258.003 31.04C259.07 31.04 259.95 31.296 260.643 31.808C261.347 32.3093 261.822 33.0293 262.067 33.968H260.099C259.939 33.5307 259.683 33.1893 259.331 32.944C258.979 32.6987 258.536 32.576 258.003 32.576C257.256 32.576 256.659 32.8427 256.211 33.376C255.774 33.8987 255.555 34.6347 255.555 35.584C255.555 36.5333 255.774 37.2747 256.211 37.808C256.659 38.3413 257.256 38.608 258.003 38.608C259.059 38.608 259.758 38.144 260.099 37.216H262.067C261.811 38.112 261.331 38.8267 260.627 39.36C259.923 39.8827 259.048 40.144 258.003 40.144C257.16 40.144 256.414 39.9573 255.763 39.584C255.112 39.2 254.6 38.6667 254.227 37.984C253.864 37.2907 253.683 36.4907 253.683 35.584ZM271.005 35.376C271.005 35.7067 270.983 36.0053 270.941 36.272H264.205C264.258 36.976 264.519 37.5413 264.989 37.968C265.458 38.3947 266.034 38.608 266.717 38.608C267.698 38.608 268.391 38.1973 268.797 37.376H270.765C270.498 38.1867 270.013 38.8533 269.309 39.376C268.615 39.888 267.751 40.144 266.717 40.144C265.874 40.144 265.117 39.9573 264.445 39.584C263.783 39.2 263.261 38.6667 262.877 37.984C262.503 37.2907 262.317 36.4907 262.317 35.584C262.317 34.6773 262.498 33.8827 262.861 33.2C263.234 32.5067 263.751 31.9733 264.413 31.6C265.085 31.2267 265.853 31.04 266.717 31.04C267.549 31.04 268.29 31.2213 268.941 31.584C269.591 31.9467 270.098 32.4587 270.461 33.12C270.823 33.7707 271.005 34.5227 271.005 35.376ZM269.101 34.8C269.09 34.128 268.85 33.5893 268.381 33.184C267.911 32.7787 267.33 32.576 266.637 32.576C266.007 32.576 265.469 32.7787 265.021 33.184C264.573 33.5787 264.306 34.1173 264.221 34.8H269.101Z" fill="white" fill-opacity="0.9"/>
</svg>
